{
  "accessors": [
    {
      "bufferView": 2,
      "componentType": 5126,
      "count": 4047,
      "max": [
        1.7344025373458862,
        1.6468905210494995,
        6.959309101104736
      ],
      "min": [
        -1.7344027757644653,
        -1.646890640258789,
        -1.0878790616989136
      ],
      "type": "VEC3"
    },
    {
      "bufferView": 2,
      "byteOffset": 48564,
      "componentType": 5126,
      "count": 4047,
      "max": [
        0.9999902248382568,
        0.9999902248382568,
        1.0
      ],
      "min": [
        -0.9999902248382568,
        -0.9999902248382568,
        -1.0
      ],
      "type": "VEC3"
    },
    {
      "bufferView": 1,
      "componentType": 5126,
      "count": 4047,
      "max": [
        1.0066384077072144,
        1.0000001192092896
      ],
      "min": [
        -0.006638112477958202,
        0.010000006295740604
      ],
      "type": "VEC2"
    },
    {
      "bufferView": 0,
      "componentType": 5125,
      "count": 21366,
      "type": "SCALAR"
    },
    {
      "bufferView": 2,
      "byteOffset": 97128,
      "componentType": 5126,
      "count": 2510,
      "max": [
        0.4758355915546417,
        0.4758353531360626,
        6.959309101104736
      ],
      "min": [
        -0.4758351147174835,
        -0.4758354127407074,
        6.365584850311279
      ],
      "type": "VEC3"
    },
    {
      "bufferView": 2,
      "byteOffset": 127248,
      "componentType": 5126,
      "count": 2510,
      "max": [
        0.9991191625595093,
        0.9991191625595093,
        1.0
      ],
      "min": [
        -0.9991191625595093,
        -0.9991191625595093,
        -0.5080559253692627
      ],
      "type": "VEC3"
    },
    {
      "bufferView": 1,
      "byteOffset": 32376,
      "componentType": 5126,
      "count": 2510,
      "max": [
        1.0000001192092896,
        1.0000001192092896
      ],
      "min": [
        0.0,
        0.010000006295740604
      ],
      "type": "VEC2"
    },
    {
      "bufferView": 0,
      "byteOffset": 85464,
      "componentType": 5125,
      "count": 13578,
      "type": "SCALAR"
    },
    {
      "bufferView": 2,
      "byteOffset": 157368,
      "componentType": 5126,
      "count": 594,
      "max": [
        2.1721348762512207,
        2.172135829925537,
        1.0
      ],
      "min": [
        -2.172137498855591,
        -2.172135829925537,
        -1.1234840154647827
      ],
      "type": "VEC3"
    },
    {
      "bufferView": 2,
      "byteOffset": 164496,
      "componentType": 5126,
      "count": 594,
      "max": [
        0.9951847195625305,
        0.9951848387718201,
        1.0
      ],
      "min": [
        -0.9951847195625305,
        -0.9951848387718201,
        -0.9998254776000977
      ],
      "type": "VEC3"
    },
    {
      "bufferView": 1,
      "byteOffset": 52456,
      "componentType": 5126,
      "count": 594,
      "max": [
        1.0,
        1.0
      ],
      "min": [
        0.0,
        0.01000000536441803
      ],
      "type": "VEC2"
    },
    {
      "bufferView": 0,
      "byteOffset": 139776,
      "componentType": 5125,
      "count": 1908,
      "type": "SCALAR"
    },
    {
      "bufferView": 2,
      "byteOffset": 171624,
      "componentType": 5126,
      "count": 3940,
      "max": [
        12.349498748779297,
        1.0,
        12.349507331848145
      ],
      "min": [
        -12.349498748779297,
        -13.726594924926758,
        -12.349507331848145
      ],
      "type": "VEC3"
    },
    {
      "bufferView": 2,
      "byteOffset": 218904,
      "componentType": 5126,
      "count": 3940,
      "max": [
        1.0,
        1.0,
        1.0
      ],
      "min": [
        -1.0,
        -1.0,
        -1.0
      ],
      "type": "VEC3"
    },
    {
      "bufferView": 1,
      "byteOffset": 57208,
      "componentType": 5126,
      "count": 3940,
      "max": [
        1.0,
        1.0
      ],
      "min": [
        0.0,
        0.01000000536441803
      ],
      "type": "VEC2"
    },
    {
      "bufferView": 0,
      "byteOffset": 147408,
      "componentType": 5125,
      "count": 21456,
      "type": "SCALAR"
    }
  ],
  "asset": {
    "extras": {
      "author": "Aris Hadisopiyan (https://sketchfab.com/aris.hadisopiyan)",
      "license": "CC-BY-NC-4.0 (http://creativecommons.org/licenses/by-nc/4.0/)",
      "source": "https://sketchfab.com/3d-models/manequin-statue-0e57fa962bc9403dbe5dc22ebe304526",
      "title": "Manequin Statue"
    },
    "generator": "Sketchfab-12.82.0",
    "version": "2.0"
  },
  "bufferViews": [
    {
      "buffer": 0,
      "byteLength": 233232,
      "name": "floatBufferViews",
      "target": 34963
    },
    {
      "buffer": 0,
      "byteLength": 88728,
      "byteOffset": 233232,
      "byteStride": 8,
      "name": "floatBufferViews",
      "target": 34962
    },
    {
      "buffer": 0,
      "byteLength": 266184,
      "byteOffset": 321960,
      "byteStride": 12,
      "name": "floatBufferViews",
      "target": 34962
    }
  ],
  "buffers": [
    {
      "byteLength": 588144,
      "uri": "scene.bin"
    }
  ],
  "materials": [
    {
      "doubleSided": true,
      "name": "Cylinder.001__0",
      "pbrMetallicRoughness": {
        "baseColorFactor": [
          0.30946892281750854,
          0.30946892281750854,
          0.30946892281750854,
          1.0
        ],
        "metallicFactor": 0.0,
        "roughnessFactor": 0.6
      }
    },
    {
      "doubleSided": true,
      "name": "Material.001",
      "pbrMetallicRoughness": {
        "baseColorFactor": [
          0.0,
          0.0,
          0.0,
          1.0
        ],
        "metallicFactor": 0.0
      }
    },
    {
      "doubleSided": true,
      "name": "Material.002",
      "pbrMetallicRoughness": {
        "baseColorFactor": [
          0.383169,
          0.102301,
          0.00793619,
          1.0
        ],
        "metallicFactor": 0.0,
        "roughnessFactor": 0.9652961361014762
      }
    },
    {
      "doubleSided": true,
      "name": "Material",
      "pbrMetallicRoughness": {
        "baseColorFactor": [
          0.311102,
          0.311102,
          0.311102,
          1.0
        ],
        "metallicFactor": 0.0,
        "roughnessFactor": 0.9237958842040668
      }
    }
  ],
  "meshes": [
    {
      "name": "Cylinder_Material.001_0",
      "primitives": [
        {
          "attributes": {
            "NORMAL": 1,
            "POSITION": 0,
            "TEXCOORD_0": 2
          },
          "indices": 3,
          "material": 1,
          "mode": 4
        }
      ]
    },
    {
      "name": "Cylinder_Material.002_0",
      "primitives": [
        {
          "attributes": {
            "NORMAL": 5,
            "POSITION": 4,
            "TEXCOORD_0": 6
          },
          "indices": 7,
          "material": 2,
          "mode": 4
        }
      ]
    },
    {
      "name": "Cylinder.001__0",
      "primitives": [
        {
          "attributes": {
            "NORMAL": 9,
            "POSITION": 8,
            "TEXCOORD_0": 10
          },
          "indices": 11,
          "material": 0,
          "mode": 4
        }
      ]
    },
    {
      "name": "Cylinder.002_Material_0",
      "primitives": [
        {
          "attributes": {
            "NORMAL": 13,
            "POSITION": 12,
            "TEXCOORD_0": 14
          },
          "indices": 15,
          "material": 3,
          "mode": 4
        }
      ]
    }
  ],
  "nodes": [
    {
      "children": [
        1
      ],
      "matrix": [
        1.0,
        0.0,
        0.0,
        0.0,
        0.0,
        2.220446049250313e-16,
        -1.0,
        0.0,
        0.0,
        1.0,
        2.220446049250313e-16,
        0.0,
        0.0,
        0.0,
        0.0,
        1.0
      ],
      "name": "Sketchfab_model"
    },
    {
      "children": [
        2
      ],
      "matrix": [
        0.009999999776482582,
        0.0,
        0.0,
        0.0,
        0.0,
        0.0,
        0.009999999776482582,
        0.0,
        0.0,
        -0.009999999776482582,
        0.0,
        0.0,
        0.0,
        0.0,
        0.0,
        1.0
      ],
      "name": "18af4fe4a1324720b0424959af42f497.fbx"
    },
    {
      "children": [
        3,
        6,
        8
      ],
      "name": "RootNode"
    },
    {
      "children": [
        4,
        5
      ],
      "matrix": [
        100.0,
        0.0,
        0.0,
        0.0,
        0.0,
        -1.629206793918314e-05,
        -99.99999999999868,
        0.0,
        0.0,
        99.99999999999868,
        -1.629206793918314e-05,
        0.0,
        0.0,
        0.0,
        0.0,
        1.0
      ],
      "name": "Cylinder"
    },
    {
      "mesh": 0,
      "name": "Cylinder_Material.001_0"
    },
    {
      "mesh": 1,
      "name": "Cylinder_Material.002_0"
    },
    {
      "children": [
        7
      ],
      "matrix": [
        14.110729217529297,
        0.0,
        0.0,
        0.0,
        0.0,
        -2.2989295908340387e-06,
        -14.11072921752911,
        0.0,
        0.0,
        221.45045471191114,
        -3.6078858533295036e-05,
        0.0,
        0.0,
        -309.4417419433594,
        0.0,
        1.0
      ],
      "name": "Cylinder.001"
    },
    {
      "mesh": 2,
      "name": "Cylinder.001__0"
    },
    {
      "children": [
        9
      ],
      "matrix": [
        7.854578228365299,
        -2.0459386882495734e-15,
        -7.8545785716998395,
        0.0,
        3.433345661464143e-07,
        11.108052253723134,
        3.4333454824538907e-07,
        0.0,
        7.854578571699832,
        -4.85548345531377e-07,
        7.854578228365292,
        0.0,
        0.0,
        -567.70068359375,
        0.0,
        1.0
      ],
      "name": "Cylinder.002"
    },
    {
      "mesh": 3,
      "name": "Cylinder.002_Material_0"
    }
  ],
  "scene": 0,
  "scenes": [
    {
      "name": "Sketchfab_Scene",
      "nodes": [
        0
      ]
    }
  ]
}
